<svg width="276" height="214" viewBox="0 0 276 214" fill="none" xmlns="http://www.w3.org/2000/svg">
<g clip-path="url(#clip0_1_4192)">
<path d="M38.8906 184.636V198.118H30.35V184.636H29.0093V212.855H30.35V199.416H38.8906V212.855H40.2314V184.636H38.8906ZM27.336 212.855V211.557H17.8716V184.636H16.5308V212.855H27.336ZM10.9251 202.932H4.09995L7.48875 188.199L10.9251 202.932ZM3.76212 204.23H11.2154L13.142 212.855H14.4828L8.03244 184.636H6.97674L2.71698 202.932V203.058L0.5 212.855H1.84074L3.76212 204.23Z" fill="#089247"/>
<path d="M222.768 212.876V211.557H213.155V184.209H211.794V212.876H222.768ZM205.966 202.794H199.035L202.482 187.825L205.966 202.794ZM198.703 204.114H206.278L208.231 212.876H209.592L203.031 184.209H201.976L197.647 202.794V202.921L195.393 212.876H196.755L198.703 204.114ZM181.395 188.337L191.313 212.876H192.416V184.209H191.054V208.749L181.189 184.209H180.038V212.876H181.4L181.395 188.337ZM174.591 187.017C175.382 188.009 175.784 189.598 175.784 191.768V205.249C175.784 207.461 175.382 209.065 174.591 210.058C174.149 210.563 173.597 210.961 172.977 211.219C172.358 211.477 171.687 211.589 171.017 211.546C169.43 211.546 168.253 211.05 167.486 210.058C166.668 209.002 166.256 207.418 166.256 205.249V191.778C166.256 189.667 166.668 188.083 167.486 187.028C168.304 185.972 169.402 185.539 171.017 185.539C172.632 185.539 173.788 186.025 174.58 187.017H174.591ZM173.165 212.576C173.911 212.366 174.592 211.972 175.145 211.43C175.794 210.776 176.289 209.984 176.591 209.113C176.989 207.869 177.168 206.565 177.119 205.26V191.778C177.119 189.315 176.609 187.445 175.588 186.167C174.568 184.89 173.037 184.237 170.996 184.209C168.987 184.209 167.456 184.862 166.404 186.167C165.415 187.473 164.92 189.343 164.92 191.778V205.26C164.877 206.567 165.065 207.871 165.475 209.113C165.777 209.984 166.271 210.776 166.921 211.43C167.472 211.972 168.151 212.366 168.895 212.576C169.582 212.771 170.292 212.872 171.007 212.876C171.733 212.874 172.456 212.773 173.155 212.576H173.165ZM162.17 212.876V184.209H160.856V212.876H162.17ZM158.058 184.167H143.025V185.528H149.887V212.834H151.196V185.528H158.058V184.167ZM137.155 202.794H130.219L133.666 187.825L137.155 202.794ZM129.882 204.114H137.472L139.43 212.876H140.792L134.242 184.209H133.186L128.847 202.794V202.921L126.593 212.876H127.955L129.882 204.114ZM112.573 188.337L122.481 212.876H123.584V184.209H122.228V208.749L112.357 184.209H111.212V212.876H112.573V188.337ZM101.003 198.075H97.8358V185.528H101.663C103.563 185.528 104.92 186.009 105.743 186.975C106.566 187.941 106.978 189.54 106.978 191.778C106.978 194.016 106.551 195.61 105.701 196.629C104.851 197.648 103.563 198.075 101.663 198.075H101.003ZM104.999 198.799C105.651 198.479 106.231 198.03 106.704 197.479C107.759 196.233 108.287 194.333 108.287 191.778C108.287 189.223 107.759 187.304 106.704 186.019C105.648 184.784 103.968 184.167 101.663 184.167H96.5162V212.834H97.8358V199.437H101.663C103.362 199.437 104.68 199.912 105.616 200.863C106.551 201.813 107.02 203.148 107.02 204.879V212.834H108.382V204.879C108.382 202.726 107.744 201.038 106.466 199.817C106.04 199.395 105.544 199.05 104.999 198.799ZM93.8558 185.528V184.209H83.568V212.876H93.8558V211.557H84.8823V199.179H93.8558V197.864H84.8823V185.528H93.8558ZM81.3563 184.167H66.2967V185.528H73.1587V212.834H74.4731V185.528H81.3668L81.3563 184.167ZM52.5197 188.337L62.4275 212.876H63.536V184.209H62.1741V208.749L52.3086 184.209H51.1579V212.876H52.5197V188.337ZM48.4342 212.876V184.209H47.1198V212.876H48.4342Z" fill="#828282"/>
<path d="M275.495 213.278V212.222H268.005V190.913H266.949V213.278H275.495ZM259.131 201.744H256.645V191.937H259.628C261.105 191.937 262.166 192.317 262.795 193.066C263.423 193.816 263.755 195.067 263.755 196.809C263.755 198.551 263.423 199.791 262.758 200.588C262.093 201.385 261.09 201.718 259.591 201.718L259.131 201.744ZM262.246 202.304C262.752 202.056 263.203 201.707 263.571 201.28C264.387 200.308 264.795 198.827 264.795 196.835C264.795 194.843 264.382 193.348 263.555 192.348C262.728 191.384 261.419 190.902 259.628 190.902H255.616V213.241H256.672V202.779H259.654C260.216 202.744 260.78 202.824 261.31 203.015C261.84 203.205 262.325 203.502 262.737 203.887C263.118 204.31 263.411 204.804 263.599 205.342C263.787 205.879 263.865 206.449 263.829 207.017V213.214H264.885V207.017C264.926 206.292 264.814 205.566 264.557 204.887C264.3 204.208 263.902 203.59 263.391 203.074C263.067 202.746 262.688 202.476 262.272 202.277L262.246 202.304ZM250.844 205.423H245.471L248.152 193.747L250.844 205.423ZM245.201 206.416H251.103L252.628 213.278H253.684L248.58 190.939H247.751L244.367 205.423V205.518L242.62 213.278H243.676L245.201 206.416ZM239.469 211.52C240.309 210.344 240.729 208.92 240.662 207.477C240.685 206.63 240.504 205.789 240.134 205.027C239.829 204.415 239.42 203.859 238.925 203.386C238.504 202.983 238.023 202.646 237.5 202.388C237.009 202.156 236.624 201.987 236.339 201.86L235.811 201.628C235.484 201.496 235.104 201.316 234.687 201.1C234.243 200.861 233.835 200.558 233.478 200.203C233.07 199.8 232.738 199.328 232.496 198.809C232.215 198.173 232.079 197.483 232.1 196.788C232.045 195.541 232.393 194.31 233.092 193.277C233.398 192.835 233.812 192.478 234.294 192.24C234.776 192.001 235.311 191.89 235.848 191.915C236.367 191.874 236.89 191.955 237.372 192.151C237.855 192.347 238.286 192.653 238.63 193.045C239.267 193.861 239.587 195.109 239.59 196.788V197.315H240.646V196.788C240.646 194.866 240.248 193.409 239.453 192.417C239.017 191.889 238.464 191.47 237.836 191.195C237.209 190.92 236.526 190.796 235.843 190.833C235.139 190.81 234.441 190.961 233.81 191.274C233.179 191.586 232.635 192.049 232.227 192.623C231.413 193.847 231.007 195.297 231.065 196.766C231.049 197.62 231.229 198.465 231.593 199.237C231.887 199.863 232.285 200.434 232.77 200.926C233.181 201.348 233.655 201.704 234.175 201.982C234.66 202.235 235.072 202.43 235.404 202.562L235.964 202.794C236.233 202.905 236.576 203.058 236.993 203.259C237.436 203.473 237.843 203.752 238.202 204.088C238.61 204.473 238.948 204.927 239.2 205.428C239.492 206.055 239.634 206.743 239.611 207.434C239.685 208.666 239.341 209.886 238.635 210.897C238.306 211.309 237.883 211.638 237.402 211.854C236.921 212.071 236.396 212.17 235.869 212.143C235.444 212.138 235.021 212.089 234.607 211.995C234.154 211.889 233.737 211.665 233.399 211.346C232.985 210.938 232.672 210.439 232.485 209.889C232.21 209.037 232.087 208.144 232.121 207.25V206.753H231.065V207.25C231.065 209.213 231.467 210.675 232.258 211.625C233.05 212.576 234.248 213.146 235.843 213.146C236.533 213.189 237.224 213.064 237.855 212.782C238.487 212.5 239.041 212.068 239.469 211.525V211.52Z" fill="#828282"/>
<path opacity="0.7" d="M138.121 86.9945C138.121 86.9945 95.8511 49.3375 138.121 0.754089C138.121 0.754089 179.822 40.401 138.121 86.9945Z" fill="#D9E028"/>
<path opacity="0.7" d="M138.121 173.235C138.121 173.235 95.8511 135.578 138.121 86.9944C138.121 86.9944 179.822 126.636 138.121 173.235Z" fill="#8BC450"/>
<path opacity="0.7" d="M138 87.1211C138 87.1211 175.657 44.8614 224.235 87.1211C224.235 87.1211 184.588 128.853 138 87.1211Z" fill="#3DB54A"/>
<path opacity="0.7" d="M51.7596 87.1211C51.7596 87.1211 89.4377 44.8508 138 87.1211C138 87.1211 98.3584 128.853 51.7596 87.1211Z" fill="#3DB54A"/>
<path opacity="0.7" d="M137.91 87.0736C137.91 87.0736 194.427 83.8221 198.893 148.062C198.893 148.062 141.357 149.534 137.91 87.0736Z" fill="#089247"/>
<path opacity="0.7" d="M76.9329 26.0962C76.9329 26.0962 133.445 22.8394 137.91 87.0842C137.91 87.0842 80.3745 88.5516 76.9329 26.0962Z" fill="#8DC641"/>
<path opacity="0.7" d="M137.9 87.0683C137.9 87.0683 141.167 143.601 76.917 148.046C76.917 148.046 75.4443 90.5099 137.9 87.0683Z" fill="#089247"/>
<path opacity="0.7" d="M198.877 26.0857C198.877 26.0857 202.139 82.6027 137.9 87.0683C137.9 87.0683 136.422 29.5325 198.877 26.0857Z" fill="#8DC641"/>
<path fill-rule="evenodd" clip-rule="evenodd" d="M137.905 60.264C143.209 60.2651 148.394 61.8389 152.804 64.7866C157.214 67.7343 160.651 71.9234 162.68 76.8242C164.709 81.725 165.239 87.1175 164.204 92.3197C163.168 97.522 160.614 102.3 156.863 106.051C153.111 109.801 148.333 112.355 143.13 113.389C137.928 114.424 132.535 113.892 127.635 111.862C122.734 109.832 118.546 106.395 115.599 101.984C112.652 97.5736 111.08 92.3885 111.08 87.0842C111.08 79.971 113.905 73.1492 118.935 68.1195C123.965 63.0897 130.787 60.264 137.9 60.264M138.338 61.1086C139.029 61.1086 139.71 61.1667 140.391 61.2247L140.813 61.3672C140.89 61.3875 140.964 61.4158 141.035 61.4517C139.694 61.3567 139.694 61.3567 138.359 61.3145L138.338 61.1086ZM141.742 61.3884C142.313 61.4728 142.888 61.5784 143.442 61.6998L143.637 61.7684H143.711C142.967 61.6523 142.967 61.6523 142.165 61.5467C142.028 61.4781 141.885 61.4253 141.742 61.3672M147.053 62.7449C147.422 62.8822 147.781 63.0353 148.14 63.1831C148.985 63.6001 149.813 64.0487 150.637 64.5502L151.244 64.9461L151.518 65.1361C150.536 64.7719 150.536 64.7719 149.497 64.4341C148.718 63.872 147.905 63.359 147.063 62.898L146.578 62.6552L146.446 62.5813L147.053 62.7449ZM153.651 66.4082C155.236 67.6192 156.678 69.0077 157.948 70.5466C157.599 70.3249 157.567 70.3091 157.135 70.0504C156.547 69.3466 155.931 68.6516 155.287 67.9654C155.16 67.844 155.028 67.712 154.907 67.5853C154.786 67.4586 154.659 67.3478 154.506 67.2106C154.2 66.9308 153.915 66.6827 153.614 66.4188L153.514 66.3396L153.651 66.4082ZM158.65 71.4387L159.008 71.919C159.878 73.2254 160.663 74.5866 161.357 75.994C161.489 76.3002 161.642 76.6274 161.769 76.9389L162.086 77.7359C161.78 77.5404 161.463 77.3641 161.136 77.2081C160.474 75.5394 159.683 73.9246 158.771 72.3782C158.591 72.0985 158.401 71.7976 158.217 71.5178C158.032 71.2381 157.921 71.1061 157.784 70.9108C158.248 71.1747 158.264 71.1906 158.65 71.4387ZM159.573 101.368V101.394C159.33 101.764 159.072 102.123 158.803 102.482C158.417 102.73 158.401 102.74 157.921 103.009C158.888 101.609 159.748 100.138 160.492 98.6072C160.65 98.2641 160.793 97.9421 160.925 97.6148C161.057 97.2875 161.173 97.0078 161.284 96.6911C161.811 96.4324 161.811 96.4324 162.223 96.1632C161.58 97.7507 160.821 99.2891 159.953 100.766L159.573 101.368ZM157.963 103.553C156.697 105.096 155.259 106.489 153.677 107.707L153.54 107.771C153.762 107.596 153.957 107.422 154.168 107.243L154.342 107.084L154.511 106.926C155.187 106.282 155.852 105.596 156.485 104.878C156.601 104.736 156.718 104.604 156.844 104.445C156.971 104.287 157.061 104.187 157.15 104.065C157.589 103.806 157.62 103.791 157.969 103.569M148.415 110.832C147.982 111.022 147.544 111.207 147.1 111.36L146.472 111.534C147.19 111.165 147.892 110.774 148.615 110.315L149.08 109.988C149.233 109.887 149.375 109.776 149.502 109.687C150.558 109.333 150.558 109.333 151.545 108.979C150.635 109.59 149.695 110.152 148.726 110.663L148.415 110.832ZM143.358 112.458C142.83 112.569 142.302 112.664 141.774 112.748L141.98 112.664L142.202 112.569C142.978 112.463 142.978 112.463 143.743 112.342L143.363 112.458M140.338 112.922C139.684 112.981 139.019 113.023 138.348 113.028V112.822C139.716 112.78 139.716 112.78 141.051 112.685C140.808 112.78 140.56 112.849 140.317 112.922M137.44 113.028C136.76 113.028 136.084 112.981 135.419 112.917L134.991 112.78L134.77 112.69C136.079 112.78 136.079 112.78 137.409 112.822C137.409 112.922 137.409 112.981 137.409 113.028M134.041 112.759C133.476 112.669 132.922 112.569 132.363 112.447L132.141 112.379L132.03 112.347C132.806 112.469 132.806 112.469 133.614 112.579L134.057 112.759M128.731 111.402C128.388 111.276 128.045 111.138 127.702 110.996C126.852 110.574 125.997 110.114 125.184 109.623C124.962 109.481 124.746 109.344 124.571 109.222C124.471 109.161 124.374 109.094 124.281 109.022C125.284 109.402 125.284 109.402 126.319 109.729C127.098 110.289 127.908 110.804 128.747 111.27C128.91 111.344 129.074 111.434 129.232 111.513L129.375 111.582C129.032 111.492 128.91 111.455 128.731 111.402ZM122.164 107.707C120.584 106.5 119.146 105.117 117.878 103.585C118.227 103.806 118.258 103.822 118.681 104.055C119.282 104.799 119.895 105.496 120.539 106.166L120.924 106.546L121.325 106.916C121.626 107.195 121.922 107.443 122.212 107.707L122.302 107.776L122.164 107.707ZM117.16 102.677L116.791 102.149C115.931 100.864 115.157 99.5239 114.474 98.1374C114.336 97.8259 114.183 97.4987 114.057 97.182C113.93 96.8652 113.851 96.6541 113.74 96.3902C114.038 96.5846 114.352 96.7524 114.68 96.8917C115.341 98.5596 116.13 100.174 117.039 101.721C117.234 102.028 117.419 102.302 117.62 102.598C117.746 102.793 117.894 102.999 118.042 103.21C117.583 102.946 117.572 102.936 117.16 102.682M116.226 72.7847C116.516 72.3518 116.817 71.9296 117.134 71.5073C117.519 71.2539 117.54 71.2434 118.016 70.9794C117.051 72.3786 116.19 73.8464 115.44 75.3711C115.281 75.7248 115.139 76.0415 115.002 76.3741C114.864 76.7066 114.759 76.9811 114.643 77.2872C114.316 77.4423 114.001 77.6187 113.698 77.8151C114.345 76.2182 115.109 74.671 115.983 73.1858L116.226 72.7847ZM117.884 70.536C119.156 68.9967 120.6 67.6066 122.186 66.3924L122.312 66.3396L121.684 66.8675L121.515 67.0258L121.341 67.1842C120.665 67.8282 120.021 68.4985 119.383 69.2164C119.267 69.3484 119.145 69.4856 119.018 69.6492L118.707 70.024C118.274 70.2827 118.243 70.2932 117.899 70.5149M127.432 63.2833C127.871 63.0933 128.314 62.9086 128.763 62.7555L129.38 62.5971C128.644 62.9637 127.927 63.3672 127.232 63.8059C127.084 63.9168 126.91 64.0276 126.762 64.1279L126.345 64.4393C125.289 64.7824 125.289 64.7824 124.308 65.1467C125.223 64.5256 126.173 63.9564 127.153 63.4417L127.432 63.2833ZM132.484 61.6417C133.012 61.5309 133.54 61.4359 134.099 61.3514L133.899 61.4359L133.677 61.5203C132.906 61.6312 132.906 61.6312 132.141 61.7526L132.484 61.6417ZM135.524 61.1772C136.174 61.1192 136.828 61.0875 137.488 61.0716V61.2775C136.174 61.3197 136.174 61.3197 134.849 61.4148C135.086 61.3197 135.319 61.2511 135.556 61.1772M145.131 62.3121C144.039 62.1115 144.039 62.1115 142.914 61.9479C142.962 61.9479 142.983 61.9901 143.036 62.0112C143.132 62.081 143.232 62.1445 143.337 62.2013C143.862 62.5656 144.353 62.9773 144.804 63.4311C146.657 63.7584 146.657 63.7584 148.436 64.1649C148.351 64.1068 148.267 64.0487 148.188 63.9854L147.66 63.6476C146.847 63.1449 146 62.6987 145.126 62.3121M141.843 61.8159C140.111 61.6787 140.111 61.6787 138.38 61.6259C138.38 62.2118 138.38 62.2118 138.38 62.935C141.093 63.0353 141.093 63.0353 143.748 63.2886C143.68 63.2358 143.622 63.1778 143.558 63.1197L143.279 62.84C142.828 62.4566 142.344 62.1139 141.832 61.8159M137.425 61.6259C135.693 61.6787 135.693 61.6787 133.988 61.8106C133.904 61.8507 133.823 61.8965 133.746 61.9479L133.445 62.1326C132.947 62.4718 132.482 62.857 132.056 63.2833C134.696 63.0353 134.696 63.0353 137.372 62.9244C137.372 62.2118 137.372 62.2118 137.425 61.6259ZM132.896 61.9373C131.771 62.1115 131.771 62.1115 130.673 62.3121C130.531 62.3649 130.388 62.4335 130.225 62.5127C130.061 62.5919 129.897 62.6605 129.697 62.7555C128.896 63.1707 128.122 63.6361 127.38 64.149C129.143 63.7479 129.143 63.7479 130.995 63.4259C131.096 63.3414 131.175 63.257 131.259 63.1831C131.349 63.0879 131.444 62.998 131.544 62.9139C131.967 62.5568 132.416 62.2305 132.885 61.9373M152.553 65.9384C151.497 65.5214 151.497 65.5214 150.32 65.1361C150.349 65.1661 150.38 65.1927 150.415 65.2153C150.684 65.4528 150.943 65.6903 151.228 65.9543C151.339 66.0598 151.465 66.1918 151.576 66.2921L151.909 66.651C152.474 67.2581 153.017 67.9126 153.551 68.6146C154.525 68.9244 155.48 69.291 156.411 69.7126L156.285 69.5542C156.148 69.3959 156.047 69.2797 155.952 69.1583C155.372 68.5144 154.786 67.9073 154.194 67.3372C154.115 67.2633 154.047 67.1947 153.968 67.1314C153.888 67.068 153.836 67.01 153.735 66.9203C153.35 66.5877 152.97 66.271 152.569 65.949M149.301 64.8458C147.375 64.3971 147.375 64.3971 145.327 64.0223C145.352 64.066 145.384 64.1052 145.422 64.1385C145.601 64.3602 145.775 64.5871 145.949 64.8405C146.018 64.9303 146.076 65.0305 146.161 65.1467C146.229 65.2594 146.303 65.3686 146.382 65.4739C146.736 66.0335 147.063 66.6352 147.438 67.3003C150.178 67.7754 150.178 67.7754 152.674 68.356C152.632 68.2927 152.579 68.2346 152.537 68.1765C152.495 68.1185 152.347 67.9179 152.252 67.807C151.724 67.1683 151.196 66.5877 150.668 66.0546C150.597 65.9965 150.53 65.933 150.468 65.8645L150.257 65.6745C149.945 65.3789 149.639 65.1097 149.301 64.8352M144.292 63.8957C141.405 63.6159 141.405 63.6159 138.422 63.4945C138.422 64.9461 138.422 64.9461 138.454 66.6616C142.481 66.8041 142.481 66.8041 146.372 67.1894L146.271 66.973C146.208 66.8463 146.134 66.7197 146.071 66.6035C145.749 65.9965 145.411 65.4423 145.078 64.9355C145.029 64.8887 144.987 64.8333 144.957 64.7719C144.906 64.7254 144.866 64.6676 144.841 64.603C144.661 64.3707 144.482 64.1385 144.287 63.9168M137.377 63.5156C134.416 63.6317 134.416 63.6317 131.518 63.9115C131.507 63.9416 131.489 63.9688 131.465 63.9907C131.425 64.0322 131.388 64.0763 131.354 64.1226C131.154 64.376 130.964 64.6505 130.758 64.925C130.695 65.0253 130.6 65.1361 130.557 65.2206C130.482 65.3216 130.413 65.4274 130.351 65.5373C130.035 66.0651 129.744 66.593 129.444 67.1894C133.313 66.8305 133.313 66.8305 137.361 66.688C137.361 64.9672 137.361 64.9672 137.398 63.5209M130.536 64.0487C128.483 64.413 128.483 64.413 126.546 64.8722L126.387 64.9514L126.187 65.1203C125.844 65.4212 125.506 65.7273 125.178 66.0493C125.094 66.1443 124.983 66.2499 124.878 66.3607C124.772 66.4716 124.672 66.5824 124.571 66.688C124.096 67.2158 123.632 67.7437 123.183 68.356C125.68 67.7595 125.68 67.7595 128.462 67.3003C128.536 67.1525 128.536 67.1525 128.604 66.9994C128.673 66.8463 128.757 66.7302 128.821 66.6035C129.156 65.9964 129.525 65.4078 129.924 64.8405C129.952 64.7893 129.985 64.7415 130.024 64.698L130.13 64.5555C130.267 64.376 130.41 64.1965 130.557 64.0276M125.548 65.1361C124.392 65.5214 124.392 65.5214 123.289 65.9543C123.226 65.9985 123.167 66.0461 123.109 66.0968L122.867 66.2868C122.46 66.6299 122.064 66.973 121.674 67.3425L121.32 67.6751C121.193 67.7965 121.082 67.9126 120.972 68.0129C120.444 68.5724 119.916 69.1372 119.441 69.7231C120.375 69.3102 121.33 68.9455 122.302 68.6305C122.386 68.5038 122.471 68.393 122.566 68.2716C122.661 68.1501 122.787 67.9971 122.893 67.8651C123.439 67.1995 124.021 66.5635 124.635 65.9596C124.68 65.9081 124.73 65.8605 124.783 65.817C124.844 65.7683 124.902 65.7154 124.957 65.6587C125.142 65.4845 125.337 65.3156 125.548 65.1308M157.161 70.5888C156.204 70.1704 155.226 69.8004 154.231 69.4803L154.643 70.119C154.823 70.4146 155.002 70.7049 155.171 71.0005C156.064 72.636 156.823 74.3413 157.441 76.0996C158.544 76.3447 159.631 76.6549 160.698 77.0286C160.581 76.7541 160.476 76.4743 160.36 76.1946C160.244 75.9148 160.075 75.5295 159.916 75.1917C159.128 73.5843 158.208 72.0448 157.166 70.5888M153.308 69.2058C150.721 68.6146 150.721 68.6146 147.834 68.1185C147.945 68.3402 148.034 68.5619 148.129 68.7836C148.224 69.0053 148.367 69.38 148.473 69.6809C149.094 71.4241 149.605 73.2047 150.003 75.0122C153.524 75.4187 153.524 75.4186 156.596 75.9148C156.496 75.6192 156.38 75.3025 156.274 75.0017C156.169 74.7008 155.984 74.2732 155.852 73.946C155.135 72.3041 154.284 70.7241 153.308 69.2217M146.789 68.0023C142.73 67.6381 142.73 67.6381 138.491 67.4745C138.491 70.7472 138.491 70.7472 138.528 74.4896C143.859 74.6163 143.859 74.6163 148.916 74.9225C148.837 74.5635 148.768 74.2363 148.694 73.9195C148.62 73.6028 148.515 73.1753 148.415 72.79C147.979 71.1566 147.435 69.5537 146.789 67.9918M137.351 67.4639C133.128 67.6065 133.128 67.6065 129.09 67.9918C128.974 68.2399 128.879 68.4827 128.768 68.7308C128.657 68.9789 128.546 69.3061 128.435 69.6176C127.823 71.3486 127.315 73.1148 126.915 74.9066C131.956 74.6058 131.956 74.6058 137.272 74.4844C137.272 70.7419 137.272 70.7419 137.319 67.4692M128.003 68.1185C125.142 68.5988 125.142 68.5988 122.529 69.2058L122.033 69.9554C121.864 70.2457 121.668 70.5519 121.505 70.8422C120.617 72.4678 119.861 74.1624 119.245 75.9096C122.328 75.3817 122.328 75.3817 125.838 74.9964C125.912 74.6744 125.981 74.3207 126.071 73.9723C126.16 73.624 126.271 73.1911 126.356 72.8427C126.81 71.2365 127.36 69.6589 128.003 68.1185ZM121.637 69.4592C120.641 69.7736 119.663 70.1419 118.707 70.5624C118.506 70.8263 118.327 71.0903 118.179 71.3278C118.031 71.5653 117.778 71.9137 117.593 72.204C116.669 73.734 115.868 75.3349 115.197 76.9916C116.261 76.6187 117.347 76.3103 118.448 76.0679C118.559 75.7459 118.67 75.4187 118.802 75.0808C118.934 74.743 119.082 74.3682 119.224 74.0251C119.913 72.4411 120.727 70.9143 121.658 69.4592M162.408 78.6755C162.111 78.4746 161.799 78.2981 161.474 78.1476C161.59 78.5066 161.695 78.8655 161.806 79.2297C161.917 79.594 162.017 80.0004 162.112 80.3963C162.548 82.4363 162.811 84.5092 162.899 86.5933L163.77 86.6355C163.77 86.2396 163.77 85.8543 163.727 85.4689C163.685 85.0836 163.669 84.6983 163.627 84.2813C163.376 82.3823 162.968 80.5073 162.408 78.6755ZM160.983 77.9893C159.908 77.6355 158.813 77.3446 157.705 77.1183C157.81 77.5037 157.926 77.9101 158.032 78.3271C158.138 78.7441 158.243 79.1822 158.343 79.6362C158.784 81.9099 159.041 84.2151 159.114 86.5299C160.988 86.5722 160.988 86.5721 162.466 86.588C162.466 86.1763 162.466 85.7593 162.418 85.337C162.371 84.9147 162.355 84.4766 162.308 84.0438C162.043 81.9862 161.601 79.9553 160.988 77.9735M156.908 76.9494C153.783 76.4796 153.783 76.4796 150.204 76.1049C150.211 76.1362 150.211 76.1686 150.204 76.1999C150.288 76.638 150.368 77.0919 150.436 77.567C150.505 78.0421 150.589 78.5224 150.653 78.9975C150.955 81.4801 151.132 83.9766 151.18 86.4771L158.338 86.5299C158.338 86.039 158.338 85.5428 158.285 85.0572C158.233 84.5716 158.222 84.0913 158.185 83.6267C157.936 81.3712 157.51 79.1386 156.913 76.9494M149.111 76.0362C143.944 75.7406 143.944 75.7406 138.507 75.6298C138.507 80.9083 138.507 80.9083 138.507 86.456C144.445 86.456 144.445 86.456 150.046 86.456V86.2977C150.046 85.7698 150.046 85.242 150.003 84.6824C149.961 84.1229 149.961 83.6267 149.929 83.0989C149.761 80.5863 149.465 78.1951 149.095 75.9993M137.25 75.5928C131.84 75.6984 131.84 75.6984 126.693 75.9782C126.677 76.0264 126.665 76.0759 126.656 76.126C126.577 76.5852 126.509 77.0392 126.435 77.4878C126.361 77.9365 126.292 78.4274 126.229 78.9236C125.933 81.4154 125.766 83.9207 125.727 86.4296H137.219C137.219 80.8872 137.219 80.8872 137.219 75.614M125.569 76.089C121.985 76.4638 121.985 76.4638 118.881 76.923C118.749 77.3347 118.633 77.757 118.522 78.1951C118.411 78.6333 118.306 79.0767 118.211 79.5201C117.77 81.8151 117.511 84.1413 117.435 86.4771L124.598 86.4402V86.266C124.598 85.7381 124.598 85.2103 124.64 84.6824C124.682 84.1546 124.682 83.6267 124.709 83.0989C124.88 80.7405 125.169 78.3921 125.574 76.0626M118.111 77.0919C117.003 77.3246 115.909 77.6153 114.833 77.9629C114.706 78.3377 114.59 78.7177 114.479 79.0978C114.368 79.4778 114.247 79.9107 114.157 80.296C113.702 82.3671 113.432 84.4744 113.349 86.5933C114.822 86.5616 114.822 86.5616 116.696 86.5405C116.696 86.0496 116.733 85.5587 116.754 85.0731C116.775 84.5874 116.817 84.1176 116.86 83.6479C117.103 81.433 117.522 79.2409 118.111 77.0919ZM114.342 78.1476C113.814 78.3905 113.814 78.3905 113.413 78.6174C113.291 78.9922 113.18 79.3406 113.075 79.7048C112.969 80.069 112.869 80.4544 112.779 80.808C112.375 82.7203 112.126 84.6621 112.035 86.6144L112.911 86.5827C112.911 86.1815 112.938 85.7593 112.959 85.3317C112.98 84.9041 113.027 84.4871 113.07 84.0649C113.329 82.0606 113.754 80.0814 114.342 78.1476ZM130.705 111.856C131.792 112.046 131.792 112.046 132.917 112.22C132.881 112.192 132.839 112.171 132.795 112.157L132.5 111.962C131.975 111.594 131.482 111.183 131.027 110.732C129.174 110.41 129.174 110.41 127.39 110.003L127.644 110.183L128.134 110.51C128.962 111.013 129.82 111.463 130.705 111.856ZM133.983 112.342C135.714 112.479 135.714 112.479 137.446 112.537C137.409 111.946 137.409 111.946 137.393 111.228C134.712 111.128 134.711 111.128 132.056 110.869C132.113 110.931 132.175 110.988 132.241 111.038C132.335 111.137 132.433 111.23 132.537 111.318C132.986 111.704 133.47 112.046 133.983 112.342ZM138.391 112.537C140.122 112.479 140.122 112.479 141.853 112.342L142.091 112.205L142.392 112.02C142.883 111.672 143.347 111.288 143.78 110.869C141.141 111.117 141.141 111.117 138.412 111.228C138.412 111.946 138.412 111.946 138.412 112.537M142.941 112.215C143.86 112.15 144.767 111.956 145.633 111.64L146.161 111.397C146.962 110.979 147.736 110.51 148.478 109.993C146.72 110.394 146.72 110.394 144.846 110.727L144.603 110.969C144.503 111.07 144.403 111.159 144.313 111.239C143.889 111.602 143.436 111.929 142.957 112.215M123.22 108.235C124.302 108.652 124.302 108.652 125.458 109.027L125.358 108.948C125.089 108.716 124.83 108.473 124.566 108.23C124.434 108.108 124.329 108.003 124.223 107.892C124.118 107.781 123.991 107.66 123.869 107.528C123.305 106.916 122.756 106.261 122.212 105.548C120.702 105.021 120.702 105.021 119.372 104.466L119.499 104.625C119.636 104.783 119.726 104.894 119.826 105.015C120.407 105.659 120.993 106.272 121.605 106.857L121.832 107.063L122.059 107.274C122.45 107.607 122.819 107.924 123.22 108.246M126.498 109.338C128.42 109.792 128.42 109.792 130.468 110.157C130.442 110.118 130.412 110.082 130.378 110.051C130.198 109.824 130.024 109.597 129.85 109.359C129.765 109.267 129.692 109.165 129.634 109.053C129.551 108.948 129.475 108.836 129.407 108.721C129.024 108.127 128.672 107.514 128.351 106.884C125.617 106.419 125.617 106.419 123.072 105.828C123.126 105.89 123.176 105.955 123.22 106.023L123.516 106.393C124.044 107.021 124.571 107.602 125.099 108.156C125.155 108.218 125.215 108.276 125.279 108.33L125.479 108.525C125.801 108.821 126.108 109.09 126.445 109.354M131.455 110.32C134.353 110.595 134.353 110.595 137.314 110.706C137.314 109.264 137.314 109.264 137.277 107.538C133.249 107.396 133.249 107.396 129.359 107.037L129.459 107.259C129.523 107.385 129.586 107.512 129.66 107.633C129.982 108.23 130.33 108.8 130.673 109.307L130.79 109.47C130.827 109.518 130.861 109.57 130.89 109.623C131.09 109.872 131.27 110.104 131.418 110.315M138.317 110.7C141.299 110.589 141.299 110.589 144.186 110.31L144.266 110.23L144.376 110.088C144.582 109.835 144.767 109.56 144.978 109.291C145.042 109.191 145.105 109.096 145.168 108.99L145.379 108.679C145.68 108.151 145.986 107.623 146.287 107.016C142.392 107.38 142.392 107.38 138.37 107.544C138.37 109.27 138.37 109.27 138.338 110.711M145.253 110.183C147.301 109.808 147.301 109.808 149.249 109.354L149.386 109.238L149.576 109.074C149.929 108.774 150.262 108.462 150.595 108.145L150.906 107.818C151.01 107.719 151.108 107.615 151.202 107.507C151.692 106.979 152.152 106.419 152.606 105.823C150.109 106.419 150.109 106.419 147.327 106.879C147.259 107.032 147.259 107.032 147.185 107.185C147.111 107.338 147.037 107.454 146.968 107.586C146.633 108.194 146.266 108.784 145.87 109.354C145.84 109.405 145.804 109.453 145.765 109.497L145.664 109.634C145.522 109.813 145.4 109.982 145.253 110.162M150.262 109.037C151.418 108.657 151.418 108.657 152.516 108.23L152.706 108.077L152.938 107.887C153.334 107.554 153.741 107.201 154.121 106.857V106.831C154.21 106.747 154.348 106.62 154.469 106.499L154.823 106.155C155.329 105.624 155.84 105.054 156.353 104.445C155.42 104.864 154.463 105.228 153.487 105.538C153.403 105.659 153.318 105.781 153.218 105.902C153.118 106.023 153.023 106.155 152.896 106.314C152.331 106.989 151.756 107.628 151.154 108.219C151.099 108.261 151.048 108.307 151.001 108.357C150.947 108.397 150.897 108.443 150.853 108.494C150.658 108.668 150.452 108.853 150.257 109.022M118.586 103.585C119.55 104.013 120.537 104.388 121.542 104.709L121.125 104.065C120.945 103.775 120.771 103.485 120.597 103.189C119.703 101.553 118.944 99.8482 118.327 98.0899C117.221 97.838 116.132 97.5189 115.065 97.1345C115.181 97.4459 115.297 97.7204 115.408 97.9949C115.519 98.2693 115.693 98.66 115.851 99.0031C116.642 100.599 117.557 102.131 118.586 103.585ZM122.428 104.957C125.02 105.559 125.02 105.559 127.897 106.013C127.795 105.798 127.7 105.577 127.612 105.348C127.49 105.052 127.374 104.762 127.264 104.461C126.639 102.719 126.128 100.938 125.733 99.1297C122.212 98.718 122.212 98.718 119.145 98.2271C119.251 98.5491 119.351 98.8394 119.462 99.135C119.573 99.4306 119.736 99.8582 119.889 100.217C120.597 101.859 121.446 103.437 122.428 104.931M128.947 106.145C133.012 106.514 133.012 106.514 137.224 106.673C137.192 103.395 137.192 103.395 137.177 99.6523C131.861 99.5362 131.861 99.5362 126.82 99.2353C126.894 99.5784 126.973 99.9215 127.042 100.233C127.11 100.544 127.221 100.977 127.316 101.357C127.752 102.993 128.296 104.598 128.947 106.161M138.364 106.689C142.587 106.535 142.587 106.535 146.662 106.161C146.778 105.918 146.873 105.675 146.979 105.432L147.317 104.535C147.909 102.806 148.399 101.043 148.784 99.2564C143.722 99.5626 143.722 99.5626 138.401 99.6787C138.401 103.421 138.401 103.421 138.364 106.699M147.723 106.039C150.584 105.559 150.584 105.559 153.197 104.952C153.36 104.709 153.519 104.456 153.693 104.202C153.867 103.949 154.057 103.606 154.221 103.316C155.145 101.679 155.934 99.9705 156.58 98.206C153.498 98.7338 153.498 98.7339 149.993 99.1192L149.755 100.175C149.655 100.576 149.56 100.956 149.47 101.304C149.027 102.913 148.478 104.492 147.829 106.029M154.189 104.683C155.187 104.368 156.167 103.998 157.124 103.574C157.319 103.31 157.499 103.046 157.652 102.814C157.805 102.582 158.048 102.223 158.238 101.927C159.165 100.401 159.97 98.8037 160.645 97.1503C159.581 97.5317 158.493 97.842 157.388 98.0793C157.282 98.3995 157.166 98.7321 157.04 99.0769C156.902 99.4412 156.765 99.7895 156.623 100.133C155.937 101.72 155.123 103.249 154.189 104.704M113.402 95.5192C113.703 95.6994 114.015 95.8599 114.336 95.9996C114.226 95.6618 114.115 95.2975 114.004 94.9439C113.893 94.5902 113.798 94.1627 113.698 93.772C113.259 91.7327 112.995 89.6594 112.911 87.5751L112.035 87.5434C112.035 87.934 112.061 88.3193 112.083 88.7047C112.104 89.09 112.135 89.507 112.183 89.8923C112.433 91.8002 112.841 93.684 113.402 95.5245M114.833 96.2107C115.91 96.5649 117.009 96.854 118.121 97.0764C117.989 96.6699 117.878 96.2635 117.778 95.8518C117.678 95.4401 117.567 94.9861 117.467 94.5374C117.03 92.2649 116.772 89.9617 116.696 87.649L113.349 87.612C113.349 88.029 113.349 88.4408 113.397 88.8578C113.444 89.2748 113.46 89.7234 113.502 90.1615C113.77 92.2178 114.215 94.2471 114.833 96.2266M118.923 97.2453C122.043 97.7151 122.043 97.7151 125.611 98.074C125.616 98.0355 125.616 97.9964 125.611 97.9579C125.532 97.5303 125.458 97.0711 125.374 96.5908C125.289 96.1104 125.237 95.6406 125.173 95.1761C124.871 92.697 124.694 90.2041 124.645 87.707C120.787 87.707 120.787 87.707 117.482 87.6595C117.482 88.1557 117.519 88.6519 117.54 89.1375C117.562 89.6231 117.604 90.1035 117.641 90.5733C117.888 92.8286 118.319 95.06 118.929 97.2453M126.72 98.1638C131.856 98.4435 131.856 98.4435 137.277 98.5544C137.277 93.2759 137.277 93.2759 137.277 87.7334H125.786V87.9129C125.786 88.4407 125.786 88.9686 125.822 89.4964C125.859 90.0243 125.865 90.5522 125.902 91.08C126.054 93.4514 126.336 95.8126 126.746 98.1532M138.538 98.5438C143.981 98.433 143.981 98.433 149.148 98.1321C149.144 98.0829 149.144 98.0335 149.148 97.9843C149.227 97.5251 149.307 97.0658 149.38 96.6119C149.454 96.1579 149.512 95.6934 149.581 95.192C149.85 92.8166 150.03 90.2988 150.072 87.6859L138.533 87.7229C138.533 93.2706 138.533 93.2706 138.533 98.5438M150.23 98.0582C153.809 97.6781 153.809 97.6781 156.934 97.2031C157.071 96.7597 157.177 96.3374 157.288 95.9151C157.399 95.4928 157.499 95.0442 157.594 94.606C158.034 92.3023 158.29 89.9671 158.359 87.6226C155.055 87.6595 155.055 87.6595 151.202 87.6859V87.8654C151.202 88.3932 151.202 88.9475 151.159 89.4489C151.117 89.9504 151.117 90.5046 151.085 91.0325C150.924 93.384 150.64 95.7255 150.236 98.0476M157.742 97.0447C158.85 96.8143 159.944 96.5218 161.02 96.1685C161.141 95.7884 161.262 95.4137 161.379 95.0336C161.495 94.6535 161.6 94.2154 161.695 93.8354C162.146 91.7674 162.412 89.6636 162.492 87.5487C161.014 87.5909 161.014 87.5909 159.14 87.612C159.14 88.1399 159.14 88.5833 159.093 89.0794C159.045 89.5756 159.03 90.0296 158.987 90.5046C158.741 92.7135 158.325 94.9001 157.742 97.0447ZM161.516 95.989C162.044 95.7409 162.044 95.7409 162.44 95.5087C162.566 95.1392 162.667 94.7961 162.783 94.4213C162.899 94.0465 162.973 93.6929 163.068 93.3128C163.476 91.4016 163.722 89.4592 163.801 87.5065L162.93 87.5434C162.93 87.9657 162.93 88.3669 162.878 88.7944C162.825 89.222 162.814 89.639 162.783 90.0613C162.519 92.0626 162.095 94.0396 161.516 95.9732" fill="white"/>
</g>
<defs>
<clipPath id="clip0_1_4192">
<rect width="275" height="212.492" fill="white" transform="translate(0.5 0.754089)"/>
</clipPath>
</defs>
</svg>
